# xmcd
#
# Track frame offsets: 
#        150
#        15060
#        27560
#        57893
#        71176
#        88294
#        100550
#        114366
#        125317
#        147824
#        158701
#        175468
#        194829
#        211216
#        227032
#        236547
#        255424
#        275033
#        293081
#        303265
#        312773
#
# Disc length: 4458 seconds
#
# Revision: 0
# Processed by: cddbd v1.5.2PL0 Copyright (c) Steve Scherf et al.
# Submitted via: ExactAudioCopy v0.95b4
#
DISCID=24116815
DTITLE=Flo and Eddie  - Illegal, Immoral And Fattening - Moving Targets 
DTITLE=FLAC
DYEAR=1900
DGENRE=
TTITLE0=Illegal. Immoral And Fattening
TTITLE1=Rebecca
TTITLE2=Kama Sutra Time
TTITLE3=The Sanzini Brothers Return
TTITLE4=Livin' In The Jungle
TTITLE5=Cheap
TTITLE6=The Kung Fu Killer
TTITLE7=Eddie. Are You Kidding?
TTITLE8=The Pop Star Massage Unit
TTITLE9=Let Me Make Love To You
TTITLE10=There's No Business Like Show Business
TTITLE11=Mama. Open Up
TTITLE12=The Love You Gave Away
TTITLE13=Hot
TTITLE14=Best Friends
TTITLE15=Best Possible Me
TTITLE16=Keep It Warm
TTITLE17=Guns
TTITLE18=Elenore
TTITLE19=Sway When You Walk
TTITLE20=Moving Targets
EXTD=
EXTT0=
EXTT1=
EXTT2=
EXTT3=
EXTT4=
EXTT5=
EXTT6=
EXTT7=
EXTT8=
EXTT9=
EXTT10=
EXTT11=
EXTT12=
EXTT13=
EXTT14=
EXTT15=
EXTT16=
EXTT17=
EXTT18=
EXTT19=
EXTT20=
PLAYORDER=
